<svg width="393" height="94" viewBox="0 0 393 94" fill="none" xmlns="http://www.w3.org/2000/svg">
<path d="M34.0313 17.8V73H19.6313V17.8H0.33525V5.992H53.3273V17.8H34.0313ZM294.004 50.344V37.096L335.284 15.016V28.264L306.772 43.336V44.104L335.284 59.176V72.424L294.004 50.344ZM351.566 59.176L380.078 44.104V43.336L351.566 28.264V15.016L392.846 37.096V50.344L351.566 72.424V59.176Z" fill="#873EFF"/>
<path d="M87.4658 17.128C84.2658 17.128 82.0258 16.488 80.7458 15.208C79.5298 13.864 78.9218 12.264 78.9218 10.408V7.62399C78.9218 5.704 79.5298 4.104 80.7458 2.824C82.0258 1.544 84.2658 0.903996 87.4658 0.903996C90.6658 0.903996 92.8738 1.544 94.0898 2.824C95.3698 4.104 96.0098 5.704 96.0098 7.62399V10.408C96.0098 12.264 95.3698 13.864 94.0898 15.208C92.8738 16.488 90.6658 17.128 87.4658 17.128ZM64.6178 61.96H80.3618V34.504H64.6178V23.464H94.5698V61.96H109.162V73H64.6178V61.96ZM159.908 73C156.964 73 154.596 72.264 152.804 70.792C151.012 69.256 149.956 67.08 149.636 64.264H149.156C148.26 67.528 146.468 69.992 143.78 71.656C141.156 73.32 137.924 74.152 134.084 74.152C129.284 74.152 125.412 72.872 122.468 70.312C119.588 67.688 118.148 64.04 118.148 59.368C118.148 54.184 120.036 50.344 123.812 47.848C127.588 45.352 133.124 44.104 140.42 44.104H148.388V41.608C148.388 38.664 147.684 36.456 146.276 34.984C144.932 33.448 142.628 32.68 139.364 32.68C136.356 32.68 133.924 33.256 132.068 34.408C130.212 35.56 128.612 37.064 127.268 38.92L119.492 32.008C121.156 29.192 123.748 26.888 127.268 25.096C130.852 23.24 135.428 22.312 140.996 22.312C147.78 22.312 153.06 23.88 156.836 27.016C160.676 30.088 162.596 34.76 162.596 41.032V62.728H168.068V73H159.908ZM139.46 64.84C141.956 64.84 144.068 64.232 145.796 63.016C147.524 61.8 148.388 60.04 148.388 57.736V51.784H140.804C134.98 51.784 132.068 53.736 132.068 57.64V59.56C132.068 61.288 132.74 62.6 134.084 63.496C135.428 64.392 137.22 64.84 139.46 64.84ZM226.687 77.992C226.687 83.24 224.479 87.112 220.063 89.608C215.647 92.104 208.703 93.352 199.231 93.352C194.495 93.352 190.591 93.064 187.519 92.488C184.447 91.976 181.983 91.208 180.127 90.184C178.335 89.16 177.055 87.944 176.287 86.536C175.583 85.128 175.231 83.592 175.231 81.928C175.231 79.112 176.063 76.968 177.727 75.496C179.391 74.088 181.727 73 184.735 72.232V71.656C182.623 71.016 180.927 70.12 179.647 68.968C178.431 67.752 177.823 66.056 177.823 63.88C177.823 61.448 178.623 59.656 180.223 58.504C181.887 57.352 184.063 56.456 186.751 55.816V55.24C183.807 53.832 181.503 51.848 179.839 49.288C178.239 46.728 177.439 43.624 177.439 39.976C177.439 37.096 177.951 34.568 178.975 32.392C179.999 30.152 181.439 28.296 183.295 26.824C185.215 25.352 187.487 24.232 190.111 23.464C192.735 22.696 195.679 22.312 198.943 22.312C202.079 22.312 204.991 22.664 207.679 23.368V20.68C207.679 18.76 208.351 17.16 209.695 15.88C211.039 14.6 212.895 13.96 215.263 13.96H223.999V24.328H212.095V25.192C214.783 26.6 216.863 28.552 218.335 31.048C219.871 33.48 220.639 36.456 220.639 39.976C220.639 42.856 220.127 45.384 219.103 47.56C218.079 49.736 216.607 51.592 214.687 53.128C212.767 54.6 210.463 55.72 207.775 56.488C205.151 57.256 202.207 57.64 198.943 57.64C197.471 57.64 196.063 57.576 194.719 57.448C193.375 57.256 192.095 57 190.879 56.68C190.175 57.064 189.567 57.544 189.055 58.12C188.607 58.696 188.383 59.432 188.383 60.328C188.383 61.096 188.575 61.704 188.959 62.152C189.343 62.6 189.855 62.952 190.495 63.208C191.199 63.4 191.999 63.528 192.895 63.592C193.791 63.656 194.719 63.688 195.679 63.688H207.007C210.527 63.688 213.535 64.04 216.031 64.744C218.527 65.448 220.575 66.44 222.175 67.72C223.775 69 224.927 70.504 225.631 72.232C226.335 73.96 226.687 75.88 226.687 77.992ZM213.247 79.048C213.247 77.768 212.735 76.744 211.711 75.976C210.687 75.272 208.735 74.92 205.855 74.92H188.863C187.583 76.008 186.943 77.352 186.943 78.952C186.943 80.488 187.583 81.736 188.863 82.696C190.207 83.72 192.447 84.232 195.583 84.232H203.935C207.199 84.232 209.567 83.784 211.039 82.888C212.511 81.992 213.247 80.712 213.247 79.048ZM198.943 48.616C201.823 48.616 203.903 47.912 205.183 46.504C206.527 45.096 207.199 43.304 207.199 41.128V38.824C207.199 36.648 206.527 34.856 205.183 33.448C203.903 32.04 201.823 31.336 198.943 31.336C196.127 31.336 194.079 32.04 192.799 33.448C191.519 34.856 190.879 36.648 190.879 38.824V41.128C190.879 43.304 191.519 45.096 192.799 46.504C194.079 47.912 196.127 48.616 198.943 48.616ZM257.081 74.152C253.241 74.152 249.785 73.576 246.713 72.424C243.641 71.208 241.017 69.48 238.841 67.24C236.729 65 235.097 62.28 233.945 59.08C232.793 55.88 232.217 52.264 232.217 48.232C232.217 44.2 232.793 40.584 233.945 37.384C235.097 34.184 236.729 31.464 238.841 29.224C241.017 26.984 243.641 25.288 246.713 24.136C249.785 22.92 253.241 22.312 257.081 22.312C260.921 22.312 264.377 22.92 267.449 24.136C270.521 25.288 273.113 26.984 275.225 29.224C277.401 31.464 279.065 34.184 280.217 37.384C281.369 40.584 281.945 44.2 281.945 48.232C281.945 52.264 281.369 55.88 280.217 59.08C279.065 62.28 277.401 65 275.225 67.24C273.113 69.48 270.521 71.208 267.449 72.424C264.377 73.576 260.921 74.152 257.081 74.152ZM257.081 63.592C260.281 63.592 262.777 62.6 264.569 60.616C266.361 58.632 267.257 55.816 267.257 52.168V44.296C267.257 40.648 266.361 37.832 264.569 35.848C262.777 33.864 260.281 32.872 257.081 32.872C253.881 32.872 251.385 33.864 249.593 35.848C247.801 37.832 246.905 40.648 246.905 44.296V52.168C246.905 55.816 247.801 58.632 249.593 60.616C251.385 62.6 253.881 63.592 257.081 63.592Z" fill="white"/>
</svg>
